<?xml version="1.0" standalone="no"?>
<!DOCTYPE svg PUBLIC "-//W3C//DTD SVG 20010904//EN"
 "http://www.w3.org/TR/2001/REC-SVG-20010904/DTD/svg10.dtd">
<svg version="1.0" xmlns="http://www.w3.org/2000/svg"
 width="700.000000pt" height="700.000000pt" viewBox="0 0 700.000000 700.000000"
 preserveAspectRatio="xMidYMid meet">
<metadata>
Created by potrace 1.14, written by Peter Selinger 2001-2017
</metadata>
<g transform="translate(0.000000,700.000000) scale(0.100000,-0.100000)"
fill="#000000" stroke="none">
<path d="M2 6618 l3 -381 30 -17 c17 -9 147 -76 290 -150 143 -73 305 -156
360 -185 55 -29 199 -103 320 -165 121 -62 276 -142 345 -178 69 -35 203 -105
299 -154 95 -49 253 -130 350 -180 97 -50 255 -131 351 -181 96 -49 238 -122
315 -162 77 -40 230 -119 340 -175 110 -56 254 -131 320 -165 113 -59 238
-123 670 -345 895 -460 1116 -575 1167 -611 14 -11 29 -19 32 -19 24 0 568
-367 642 -435 7 -5 31 -26 55 -45 102 -83 141 -118 259 -239 69 -69 154 -163
188 -206 35 -44 71 -89 80 -100 73 -88 181 -270 237 -397 20 -46 40 -92 45
-103 34 -76 92 -294 106 -395 29 -215 25 -366 -17 -560 -73 -343 -264 -720
-504 -995 l-66 -75 391 0 390 0 0 3500 0 3500 -3500 0 -3500 0 2 -382z"/>
<path d="M0 3937 l0 -923 33 -16 c17 -8 37 -16 42 -17 6 -2 15 -6 20 -11 6 -5
87 -47 180 -95 94 -48 215 -111 270 -140 130 -69 223 -115 232 -116 5 -1 19
-9 33 -18 14 -10 99 -55 190 -101 91 -46 181 -92 200 -103 19 -11 76 -42 125
-70 147 -82 501 -309 590 -379 6 -4 62 -48 125 -97 342 -264 639 -607 802
-926 85 -168 161 -403 184 -575 14 -104 18 -158 18 -247 l-1 -103 514 0 c403
0 513 3 514 13 0 6 3 26 5 42 2 17 11 80 19 140 19 139 24 173 30 210 3 17 7
46 9 65 6 49 18 132 21 150 2 8 6 46 10 83 6 56 10 67 24 63 37 -12 149 -35
196 -42 28 -3 59 -8 70 -10 28 -6 262 -6 283 0 9 2 38 7 64 11 156 19 348 115
454 227 80 83 178 264 198 363 4 17 9 41 12 55 22 99 4 252 -43 365 -94 225
-354 469 -758 712 -210 126 -191 116 -1050 558 -93 48 -240 124 -325 168 -85
43 -231 119 -325 167 -93 48 -244 126 -335 172 -91 47 -246 127 -345 178 -99
51 -247 128 -330 170 -245 126 -459 237 -645 332 -96 50 -251 130 -345 178
-336 173 -483 249 -690 355 -116 60 -219 114 -230 122 -47 32 -45 69 -45 -910z"/>
<path d="M0 820 l0 -820 832 2 832 3 14 50 c22 83 19 237 -7 325 -59 195 -205
378 -456 571 -84 64 -282 197 -350 235 -11 6 -59 34 -107 62 -48 29 -89 52
-91 52 -3 0 -40 19 -83 43 -99 55 -572 297 -579 297 -3 0 -5 -369 -5 -820z"/>
</g>
</svg>
